<svg data-v-0dd9719b="" version="1.0" xmlns="http://www.w3.org/2000/svg" xmlns:xlink="http://www.w3.org/1999/xlink" width="100%" height="100%" viewBox="0 0 340.000000 250.000000" preserveAspectRatio="xMidYMid meet" color-interpolation-filters="sRGB" style="margin: auto;"> <rect data-v-0dd9719b="" x="0" y="0" width="100%" height="100%" fill="#ffffff" fill-opacity="1" class="background"></rect> <rect data-v-0dd9719b="" x="0" y="0" width="100%" height="100%" fill="url(#watermark)" fill-opacity="1" class="watermarklayer"></rect> <g data-v-0dd9719b="" fill="#03001e" class="icon-text-wrapper icon-svg-group iconsvg" transform="translate(49.524993896484375,98.01527214050293)"><g class="iconsvg-imagesvg" transform="translate(0,0)" mask="url(#163722b7-d63f-491e-a79f-56fd4b297a8d)"><g><rect fill="#03001e" fill-opacity="0" stroke-width="2" x="0" y="0" width="60" height="53.96945328943818" class="image-rect"></rect> <svg filter="url(#colors4021528489)" x="0" y="0" width="60" height="53.96945328943818" filtersec="colorsf7120703810" class="image-svg-svg primary" style="overflow: visible;"><svg xmlns="http://www.w3.org/2000/svg" viewBox="-0.0250411294400692 -0.00058746337890625 142.3494110107422 128.04251098632812"><title>4DeOgf.tif</title><path d="M70.56 0C94.87.12 117 7.32 137.5 20.15c3.77 2.36 5.7 4.92 4.44 9.45-.62 2.23.3 5.49-1.75 6.56-2.23 1.16-3.65-2-5.37-3.22a65.9 65.9 0 0 0-36.71-12.52c-21.76-.9-42.56 2.93-62 13.09A122.93 122.93 0 0 0 8.88 53.24C6 56 5.54 55.91 4.45 52 2.12 43.54.2 35 0 26.2a5.72 5.72 0 0 1 3-5.58C23.75 8.05 45.89-.08 70.56 0z" fill="#000000"></path><path d="M87.47 36.81c12.17.44 25.51 2.48 37.27 10.46 11.16 7.56 11.89 10.17 6 22.16-1.21 2.46-2.6 4.84-3.94 7.24-.42.74-.74 1.76-1.78 1.73-1.35 0-1.29-1.34-1.56-2.23-2.13-7-5.81-12.69-12.41-16.22-8.31-4.44-17.23-4.78-26.3-3.85-23.6 2.39-43.11 12.74-58.9 30.32-3 3.34-3.17 3.25-5.67-.44-.71-1-1.44-2-2.07-3.12-6.29-10.69-6.12-8.15 1.65-15.6 11-10.51 23.23-19.37 37.56-25a79.92 79.92 0 0 1 30.15-5.45z" fill="#000000"></path><path d="M87.1 72.69c11.77 1 22.13 4.69 29.55 14.54 1.65 2.18 1.74 3.85-.43 5.76-2.34 2.05-4.43 4.39-6.61 6.63-1.44 1.48-2.53 1.88-3.5-.54-2.18-5.42-6.56-8-12.14-8.68-13.31-1.49-24.97 2.39-34.75 11.46a75.18 75.18 0 0 0-9.8 10.3c-1.39 1.88-2.71 1.94-4.31.42-.09-.09-.2-.15-.29-.23-11.72-9.86-11.75-7-1.88-18.73C54.3 80.13 69.64 74 87.1 72.69zM92.51 106.64h6c.74 0 1.59.09 1.89.92s-.38 1.35-.95 1.83a155.35 155.35 0 0 1-26.14 18c-2.39 1.29-4.32.48-6.25-.82-2.12-1.43-1.1-3.37-.6-5.09 2.54-8.6 10.54-14.19 21.18-14.83 1.62-.09 3.24-.01 4.87-.01z" fill="#000000"></path></svg></svg> <defs><filter id="colors4021528489"><feColorMatrix type="matrix" values="0 0 0 0 0.01171875  0 0 0 0 0  0 0 0 0 0.1171875  0 0 0 1 0" class="icon-fecolormatrix"></feColorMatrix></filter> <filter id="colorsf7120703810"><feColorMatrix type="matrix" values="0 0 0 0 0.99609375  0 0 0 0 0.99609375  0 0 0 0 0.99609375  0 0 0 1 0" class="icon-fecolormatrix"></feColorMatrix></filter> <filter id="colorsb7550100171"><feColorMatrix type="matrix" values="0 0 0 0 0  0 0 0 0 0  0 0 0 0 0  0 0 0 1 0" class="icon-fecolormatrix"></feColorMatrix></filter></defs></g><rect v-gra="id" width="72" height="65.96945571899414" transform="translate(-6, -6)" style="pointer-events:none;" fill="url(#BAsRRBKsrBwnhhd9BIjHN)"></rect></g> <g transform="translate(67,0.8884773254394531)"><g data-gra="path-name" fill-rule="" class="tp-name iconsvg-namesvg" transform="translate(0,0)" fill="url(#ba6d2163-00d6-4129-b181-92235aefd063)"><g transform="scale(1)"><g><path d="M30.36-25.96Q30.73-25.96 31.06-25.69 31.39-25.43 31.39-24.93L31.39-24.93 31.39-4.28Q31.39-1.65 29.89 0.14 28.39 1.93 25.22 1.93L25.22 1.93 10.82 1.93Q7.65 1.93 6.15 0.14 4.65-1.65 4.65-4.28L4.65-4.28 4.65-24.93Q4.65-25.43 4.98-25.69 5.31-25.96 5.68-25.96L5.68-25.96Q6.05-25.96 6.38-25.69 6.71-25.43 6.71-24.93L6.71-24.93 6.71-4.48Q6.71-2.84 7.73-1.48 8.76-0.12 11.23-0.12L11.23-0.12 17.03-0.12 17.03-31.39Q17.03-31.89 17.36-32.15 17.69-32.42 18.06-32.42L18.06-32.42Q18.43-32.42 18.76-32.15 19.09-31.89 19.09-31.39L19.09-31.39 19.09-0.12 24.81-0.12Q27.28-0.12 28.31-1.48 29.33-2.84 29.33-4.48L29.33-4.48 29.33-24.93Q29.33-25.43 29.66-25.69 29.99-25.96 30.36-25.96L30.36-25.96ZM68.75-30.49Q69.24-30.49 69.51-30.16 69.78-29.83 69.78-29.46L69.78-29.46Q69.78-29.09 69.51-28.76 69.24-28.43 68.75-28.43L68.75-28.43 58.71-28.43 58.71-21.6 61.34-21.6Q64.47-21.6 65.99-19.87 67.52-18.14 67.52-15.8L67.52-15.8 67.52-3.21Q67.52-0.86 65.99 0.86 64.47 2.59 61.34 2.59L61.34 2.59 46.49 2.59Q43.36 2.59 41.84 0.86 40.32-0.86 40.32-3.21L40.32-3.21 40.32-15.8Q40.32-18.14 41.84-19.87 43.36-21.6 46.49-21.6L46.49-21.6 48.75-21.6 48.71-28.43 39.25-28.43Q38.76-28.43 38.49-28.76 38.22-29.09 38.22-29.46L38.22-29.46Q38.22-29.83 38.49-30.16 38.76-30.49 39.25-30.49L39.25-30.49 68.75-30.49ZM56.65-21.6L56.65-28.43 50.77-28.43 50.77-21.6 56.65-21.6ZM60.93 0.53Q63.44 0.53 64.45-0.64 65.46-1.81 65.46-3.41L65.46-3.41 65.46-8.39 62.83-8.39Q60.4-8.39 59.06-9.01 57.72-9.63 57.19-10.88 56.65-12.14 56.65-14.19L56.65-14.19 56.65-19.54 50.77-19.54 50.77-18.88Q50.77-15.84 50.46-13.84 50.15-11.85 49.06-10 47.97-8.15 45.71-6.42L45.71-6.42Q45.42-6.17 45.01-6.17L45.01-6.17Q44.52-6.17 44.27-6.5L44.27-6.5Q43.98-6.87 43.98-7.28L43.98-7.28Q43.98-7.73 44.35-7.98L44.35-7.98Q46.33-9.34 47.29-10.96 48.26-12.59 48.51-14.36 48.75-16.13 48.75-18.88L48.75-18.88 48.75-19.54 46.9-19.54Q44.35-19.54 43.36-18.37 42.38-17.2 42.38-15.59L42.38-15.59 42.38-3.41Q42.38-1.81 43.39-0.64 44.39 0.53 46.9 0.53L46.9 0.53 60.93 0.53ZM60.93-19.54L58.71-19.54 58.71-14.4Q58.71-12.8 59-11.99 59.29-11.19 60.23-10.82 61.18-10.45 63.24-10.45L63.24-10.45 65.46-10.45 65.46-15.59Q65.46-17.2 64.47-18.37 63.48-19.54 60.93-19.54L60.93-19.54ZM82.78-4.36L82.78-0.08 85.66-0.33Q85.41-0.41 85.25-0.49L85.25-0.49Q84.71-0.78 84.71-1.36L84.71-1.36Q84.71-1.6 84.88-1.89L84.88-1.89 85.82-3.54Q86.19-4.07 86.69-4.07L86.69-4.07Q86.89-4.07 87.22-3.91L87.22-3.91Q87.76-3.54 87.76-3.04L87.76-3.04Q87.76-2.72 87.59-2.51L87.59-2.51 86.65-0.86Q86.4-0.49 86.11-0.37L86.11-0.37 87.22-0.49Q87.72-0.53 88.05-0.21 88.37 0.12 88.37 0.53L88.37 0.53Q88.37 0.91 88.13 1.21 87.88 1.52 87.43 1.56L87.43 1.56 74.88 2.72Q74.39 2.76 74.08 2.43 73.77 2.1 73.77 1.69L73.77 1.69Q73.77 1.32 74.02 1.01 74.26 0.7 74.72 0.66L74.72 0.66 80.72 0.12 80.72-4.36 75.83-4.36Q75.33-4.36 75.07-4.69 74.8-5.02 74.8-5.39L74.8-5.39Q74.8-5.76 75.07-6.09 75.33-6.42 75.83-6.42L75.83-6.42 80.72-6.42 80.72-8.52 78.83-8.52Q78.34-8.52 78.07-8.85 77.8-9.17 77.8-9.55L77.8-9.55 77.8-9.71Q76.69-8.89 75.33-8.11L75.33-8.11Q75-7.94 74.8-7.94L74.8-7.94Q74.55-7.94 74.28-8.08 74.02-8.23 73.93-8.43L73.93-8.43Q73.81-8.68 73.81-9.01L73.81-9.01Q73.81-9.55 74.26-9.83L74.26-9.83Q76.65-11.27 78.11-12.49 79.57-13.7 81.34-15.72L81.34-15.72 75.62-15.72Q75.13-15.72 74.86-16.05 74.59-16.37 74.59-16.75L74.59-16.75Q74.59-17.12 74.86-17.44 75.13-17.77 75.62-17.77L75.62-17.77 82.33-17.77 81.17-19.05Q80.89-19.38 80.89-19.75L80.89-19.75Q80.89-20.12 81.26-20.49L81.26-20.49Q81.55-20.78 81.96-20.78L81.96-20.78Q82.41-20.78 82.74-20.41L82.74-20.41 83.89-19.13Q84.18-18.8 84.18-18.43L84.18-18.43Q84.18-18.14 83.89-17.77L83.89-17.77 89.03-17.77 89.03-20.94 78.25-20.94Q77.76-20.94 77.49-21.27 77.23-21.6 77.23-21.97L77.23-21.97Q77.23-22.34 77.49-22.67 77.76-23 78.25-23L78.25-23 89.03-23 89.03-25.14 83.77-25.14Q83.27-25.14 83.01-25.47 82.74-25.8 82.74-26.17L82.74-26.17Q82.74-26.29 82.82-26.54L82.82-26.54Q79.32-24.89 75.33-23.66L75.33-23.66Q75-23.57 74.84-23.57L74.84-23.57Q74.1-23.57 73.85-24.15L73.85-24.15Q73.77-24.4 73.77-24.6L73.77-24.6Q73.77-24.93 73.93-25.22 74.1-25.51 74.43-25.59L74.43-25.59Q82.04-27.61 87.1-31.47L87.1-31.47Q88.21-32.34 88.89-32.69 89.57-33.04 90.14-33.04L90.14-33.04Q90.64-33.04 91.21-32.75 91.79-32.46 92.61-31.84L92.61-31.84Q95.62-29.58 98.78-28.12 101.95-26.66 105.61-25.8L105.61-25.8Q105.9-25.76 106.07-25.49 106.23-25.22 106.23-24.89L106.23-24.89Q106.23-24.73 106.15-24.48L106.15-24.48Q106.07-24.19 105.78-24.03 105.49-23.86 105.16-23.86L105.16-23.86Q104.91-23.86 104.79-23.9L104.79-23.9Q100.55-25.1 97.1-26.74L97.1-26.74Q97.26-26.45 97.26-26.17L97.26-26.17Q97.26-25.8 96.99-25.47 96.73-25.14 96.23-25.14L96.23-25.14 91.09-25.14 91.09-23 101.66-23Q102.16-23 102.43-22.67 102.69-22.34 102.69-21.97L102.69-21.97Q102.69-21.6 102.43-21.27 102.16-20.94 101.66-20.94L101.66-20.94 91.09-20.94 91.09-17.77 96.03-17.77Q95.78-18.02 95.78-18.35L95.78-18.35Q95.78-18.68 96.07-19.01L96.07-19.01 97.22-20.37Q97.55-20.74 98-20.74L98-20.74Q98.41-20.74 98.7-20.45L98.7-20.45Q99.07-20.08 99.07-19.71L99.07-19.71Q99.07-19.34 98.78-19.01L98.78-19.01 97.76-17.77 104.38-17.77Q104.87-17.77 105.14-17.44 105.41-17.12 105.41-16.75L105.41-16.75Q105.41-16.37 105.14-16.05 104.87-15.72 104.38-15.72L104.38-15.72 83.15-15.72Q83.36-15.43 83.27-14.98L83.27-14.98 87.92-11.89Q88.37-11.56 88.37-11.07L88.37-11.07Q88.37-10.74 88.17-10.45L88.17-10.45Q87.88-10.04 87.31-10.04L87.31-10.04Q87.02-10.04 86.73-10.2L86.73-10.2 81.96-13.41Q80.48-11.81 78.95-10.57L78.95-10.57 84.92-10.57Q85.41-10.57 85.68-10.24 85.95-9.92 85.95-9.55L85.95-9.55Q85.95-9.17 85.68-8.85 85.41-8.52 84.92-8.52L84.92-8.52 82.78-8.52 82.78-6.42 87.51-6.42Q88-6.42 88.27-6.09 88.54-5.76 88.54-5.39L88.54-5.39Q88.54-5.02 88.27-4.69 88-4.36 87.51-4.36L87.51-4.36 82.78-4.36ZM88.62-29.95Q86.65-28.51 84.1-27.2L84.1-27.2 96.15-27.2Q93.44-28.59 91.38-29.99L91.38-29.99Q90.88-30.36 90.53-30.57 90.19-30.77 89.98-30.77L89.98-30.77Q89.77-30.77 89.34-30.47 88.91-30.16 88.62-29.95L88.62-29.95ZM105.61-10.04Q106.19-9.79 106.19-9.09L106.19-9.09Q106.19-8.85 106.15-8.72L106.15-8.72Q106.07-8.43 105.8-8.23 105.53-8.02 105.2-8.02L105.2-8.02Q105.08-8.02 104.83-8.11L104.83-8.11Q103.23-8.85 102.16-9.55L102.16-9.55Q102.2-9.42 102.2-9.22L102.2-9.22Q102.2-8.85 101.93-8.52 101.66-8.19 101.17-8.19L101.17-8.19 98.04-8.19 98.04-6.01 103.72-6.01Q104.21-6.01 104.48-5.68 104.75-5.35 104.75-4.98L104.75-4.98Q104.75-4.61 104.48-4.28 104.21-3.95 103.72-3.95L103.72-3.95 98.04-3.95 98.04 0.82 104.96 0.82Q105.45 0.82 105.72 1.15 105.98 1.48 105.98 1.85L105.98 1.85Q105.98 2.22 105.72 2.55 105.45 2.88 104.96 2.88L104.96 2.88 90.06 2.88Q89.57 2.88 89.3 2.55 89.03 2.22 89.03 1.85L89.03 1.85Q89.03 1.48 89.3 1.15 89.57 0.82 90.06 0.82L90.06 0.82 95.99 0.82 95.99-3.95 90.68-3.95Q90.19-3.95 89.92-4.28 89.65-4.61 89.65-4.98L89.65-4.98Q89.65-5.35 89.92-5.68 90.19-6.01 90.68-6.01L90.68-6.01 95.99-6.01 95.99-8.19 93.31-8.19Q92.82-8.19 92.55-8.52 92.28-8.85 92.28-9.22L92.28-9.22 92.28-9.34Q90.88-8.43 90.02-7.98L90.02-7.98Q89.77-7.86 89.57-7.86L89.57-7.86Q89.24-7.86 88.97-8.06 88.7-8.27 88.62-8.56L88.62-8.56Q88.54-8.72 88.54-8.89L88.54-8.89Q88.54-9.17 88.72-9.48 88.91-9.79 89.2-9.96L89.2-9.96Q92.61-11.85 95.16-14.4L95.16-14.4Q96.4-15.63 97.26-15.63L97.26-15.63Q98.04-15.63 98.95-14.73L98.95-14.73Q101.87-11.73 105.61-10.04L105.61-10.04ZM93.56-10.24L101.09-10.24Q99.57-11.36 98.25-12.63L98.25-12.63Q97.51-13.37 97.26-13.37L97.26-13.37Q97.1-13.37 96.81-13.06 96.52-12.75 96.27-12.55L96.27-12.55Q94.88-11.23 93.56-10.24L93.56-10.24ZM78.38-0.29Q78.05-0.12 77.84-0.12L77.84-0.12Q77.35-0.12 76.98-0.66L76.98-0.66 75.87-2.51Q75.7-2.8 75.7-3.04L75.7-3.04Q75.7-3.62 76.24-3.91L76.24-3.91Q76.57-4.07 76.81-4.07L76.81-4.07Q77.35-4.07 77.64-3.58L77.64-3.58 78.75-1.69Q78.91-1.4 78.91-1.15L78.91-1.15Q78.91-0.58 78.38-0.29L78.38-0.29ZM93.44 0.37Q93.11 0.53 92.9 0.53L92.9 0.53Q92.41 0.53 92.04 0L92.04 0 90.84-1.93Q90.68-2.22 90.68-2.47L90.68-2.47Q90.68-3.04 91.21-3.33L91.21-3.33Q91.54-3.5 91.79-3.5L91.79-3.5Q92.32-3.5 92.61-3L92.61-3 93.81-1.03Q93.97-0.74 93.97-0.49L93.97-0.49Q93.97 0.08 93.44 0.37L93.44 0.37ZM101.38-2.88Q101.75-3.41 102.24-3.41L102.24-3.41Q102.45-3.41 102.77-3.25L102.77-3.25Q103.31-2.88 103.31-2.39L103.31-2.39Q103.31-2.06 103.15-1.85L103.15-1.85 102.03 0.04Q101.66 0.58 101.17 0.58L101.17 0.58Q100.96 0.58 100.64 0.41L100.64 0.41Q100.1 0.12 100.1-0.45L100.1-0.45Q100.1-0.7 100.27-0.99L100.27-0.99 101.38-2.88ZM111.29-20.32Q110.8-20.32 110.53-20.65 110.26-20.98 110.26-21.35L110.26-21.35Q110.26-21.72 110.53-22.05 110.8-22.38 111.29-22.38L111.29-22.38 113.6-22.38 113.6-24.03Q113.6-26.5 114.42-27.98 115.24-29.46 117.5-29.75L117.5-29.75 118.16-32.13Q118.29-32.59 118.66-32.75 119.03-32.91 119.4-32.83L119.4-32.83Q119.77-32.75 120.01-32.4 120.26-32.05 120.14-31.6L120.14-31.6 119.64-29.83 119.73-29.83Q122.61-29.83 123.65-28.2 124.7-26.58 124.7-24.03L124.7-24.03 124.7-16.91Q124.7-14.4 123.78-13.35 122.85-12.3 121.82-12.1L121.82-12.1Q121.66-12.05 121.25-11.97 120.84-11.89 120.51-11.89L120.51-11.89Q120.1-11.89 119.83-12.2 119.56-12.51 119.56-12.88L119.56-12.88Q119.56-13.25 119.83-13.54 120.1-13.82 120.59-13.91L120.59-13.91Q121.62-14.07 122.13-15.02 122.65-15.96 122.65-18.27L122.65-18.27 122.65-20.32 115.65-20.32Q115.57-17.94 115.06-16.09 114.54-14.24 113.27-11.81L113.27-11.81Q112.85-11.07 112.24-11.07L112.24-11.07Q111.99-11.07 111.87-11.15L111.87-11.15Q111.62-11.27 111.41-11.56 111.21-11.85 111.21-12.18L111.21-12.18Q111.21-12.43 111.33-12.59L111.33-12.59Q112.65-14.48 113.08-16.19 113.51-17.9 113.6-20.32L113.6-20.32 111.29-20.32ZM140.67-25.76Q141.16-25.76 141.43-25.43 141.7-25.1 141.7-24.73L141.7-24.73Q141.7-24.36 141.43-24.03 141.16-23.7 140.67-23.7L140.67-23.7 139.35-23.7Q136.02-23.7 136.02-27.2L136.02-27.2 136.02-27.44Q136.02-28.02 135.38-28.45 134.74-28.88 133.51-28.88L133.51-28.88 133.06-28.88Q131.78-28.88 131.14-28.45 130.51-28.02 130.51-27.44L130.51-27.44 130.51-26.74Q130.51-25.59 129.85-24.83 129.19-24.07 128.12-23.49L128.12-23.49Q127.71-23.2 127.3-23.2L127.3-23.2Q126.84-23.2 126.6-23.53L126.6-23.53Q126.35-23.86 126.35-24.32L126.35-24.32Q126.35-24.81 126.76-25.06L126.76-25.06Q128.41-25.88 128.45-26.95L128.45-26.95 128.45-27.65Q128.45-29.21 129.56-30.08 130.67-30.94 132.64-30.94L132.64-30.94 133.92-30.94Q135.81-30.94 136.94-29.97 138.08-29.01 138.08-27.65L138.08-27.65 138.08-27.4Q138.08-26.62 138.28-26.25 138.49-25.88 138.8-25.82 139.1-25.76 139.76-25.76L139.76-25.76 140.67-25.76ZM119.03-27.77Q117.38-27.77 116.66-27.2 115.94-26.62 115.8-25.86 115.65-25.1 115.65-23.82L115.65-23.82 115.65-22.38 122.65-22.38 122.65-23.82Q122.65-25.1 122.5-25.86 122.36-26.62 121.64-27.2 120.92-27.77 119.31-27.77L119.31-27.77 119.03-27.77ZM118.94-23.49L117.5-25.39Q117.26-25.71 117.26-26.04L117.26-26.04Q117.26-26.5 117.67-26.83L117.67-26.83Q118-27.07 118.33-27.07L118.33-27.07Q118.82-27.07 119.11-26.66L119.11-26.66 120.55-24.77Q120.8-24.48 120.8-24.11L120.8-24.11Q120.8-23.66 120.38-23.33L120.38-23.33Q120.05-23.08 119.73-23.08L119.73-23.08Q119.23-23.08 118.94-23.49L118.94-23.49ZM127.3-11.56Q127.17-11.52 126.97-11.52L126.97-11.52Q126.64-11.52 126.35-11.77 126.06-12.01 126.02-12.26L126.02-12.26Q125.94-13.33 126.76-13.54L126.76-13.54Q129.56-14.24 131.49-15.26L131.49-15.26Q130.01-16.33 128.9-17.57L128.9-17.57 127.87-18.72Q127.25-19.42 127.25-20.28L127.25-20.28Q127.25-21.15 127.91-21.76 128.57-22.38 129.72-22.38L129.72-22.38 136.92-22.38Q138.08-22.38 138.73-21.76 139.39-21.15 139.39-20.28L139.39-20.28Q139.39-19.42 138.77-18.72L138.77-18.72 137.75-17.57Q136.64-16.33 135.15-15.26L135.15-15.26Q137.09-14.24 139.89-13.54L139.89-13.54Q140.71-13.33 140.63-12.26L140.63-12.26Q140.59-11.93 140.19-11.66 139.8-11.4 139.35-11.56L139.35-11.56Q136.06-12.38 133.34-14.03L133.34-14.03Q130.55-12.38 127.3-11.56L127.3-11.56ZM130.51-18.84Q131.78-17.44 133.34-16.37L133.34-16.37Q134.87-17.49 136.14-18.84L136.14-18.84 136.51-19.3Q136.8-19.67 136.8-19.95L136.8-19.95Q136.8-20.32 136.14-20.32L136.14-20.32 130.51-20.32Q129.85-20.32 129.85-19.95L129.85-19.95Q129.85-19.67 130.13-19.3L130.13-19.3 130.51-18.84ZM118.86-19.3Q119.19-19.3 119.5-19.03 119.81-18.76 119.81-18.31L119.81-18.31 119.81-15.59Q119.81-15.1 119.46-14.83 119.11-14.56 118.7-14.56L118.7-14.56Q118.37-14.56 118.06-14.83 117.75-15.1 117.75-15.55L117.75-15.55 117.75-18.27Q117.75-18.76 118.1-19.03 118.45-19.3 118.86-19.3L118.86-19.3ZM140.01-10.2Q140.5-10.2 140.77-9.87 141.04-9.55 141.04-9.17L141.04-9.17Q141.04-8.8 140.77-8.48 140.5-8.15 140.01-8.15L140.01-8.15 121.99-8.15Q121-6.54 119.56-5.1L119.56-5.1Q120.8-5.51 122.32-5.51L122.32-5.51 132.19-5.51Q134.78-5.51 136.16-4.32 137.54-3.13 137.54-1.56L137.54-1.56 137.54-0.82Q137.54 0.74 136.16 1.93 134.78 3.13 132.19 3.13L132.19 3.13 122.32 3.13Q119.64 3.13 118.31 2.06 116.97 0.99 116.97-0.82L116.97-0.82 116.97-1.56Q116.97-2.43 117.26-3.04L117.26-3.04Q114.91-1.23 111.41 0.86L111.41 0.86Q111 1.07 110.76 1.07L110.76 1.07Q110.22 1.07 109.93 0.7L109.93 0.7Q109.73 0.49 109.73 0.04L109.73 0.04Q109.73-0.45 110.14-0.7L110.14-0.7Q116.31-4.36 119.48-8.15L119.48-8.15 112.44-8.15Q111.95-8.15 111.68-8.48 111.41-8.8 111.41-9.17L111.41-9.17Q111.41-9.55 111.68-9.87 111.95-10.2 112.44-10.2L112.44-10.2 140.01-10.2ZM122.73-3.46Q120.63-3.46 119.83-2.92 119.03-2.39 119.03-1.36L119.03-1.36 119.03-1.03Q119.03 0 119.83 0.53 120.63 1.07 122.73 1.07L122.73 1.07 131.78 1.07Q133.76 1.07 134.62 0.47 135.48-0.12 135.48-1.03L135.48-1.03 135.48-1.36Q135.48-2.39 134.66-2.92 133.84-3.46 131.78-3.46L131.78-3.46 122.73-3.46ZM178.4-5.1Q178.6-4.85 178.6-4.48L178.6-4.48Q178.6-3.95 178.19-3.66L178.19-3.66Q177.9-3.46 177.53-3.46L177.53-3.46Q177.04-3.46 176.75-3.87L176.75-3.87Q172.02-9.26 169.22-16.62L169.22-16.62 169.22 3.17Q169.22 3.66 168.89 3.93 168.56 4.2 168.19 4.2L168.19 4.2Q167.82 4.2 167.49 3.93 167.16 3.66 167.16 3.17L167.16 3.17 167.16-16.91Q164.49-9.63 159.35-3.17L159.35-3.17Q159.06-2.76 158.56-2.76L158.56-2.76Q158.19-2.76 157.91-2.96L157.91-2.96Q157.49-3.25 157.49-3.79L157.49-3.79Q157.49-4.16 157.7-4.4L157.7-4.4Q164.49-12.8 166.75-22.59L166.75-22.59 162.35-22.59Q161.86-22.59 161.59-22.92 161.32-23.25 161.32-23.62L161.32-23.62Q161.32-23.99 161.59-24.32 161.86-24.64 162.35-24.64L162.35-24.64 167.16-24.64 167.16-31.64Q167.16-32.13 167.49-32.4 167.82-32.67 168.19-32.67L168.19-32.67Q168.56-32.67 168.89-32.4 169.22-32.13 169.22-31.64L169.22-31.64 169.22-24.64 176.63-24.64Q177.12-24.64 177.39-24.32 177.65-23.99 177.65-23.62L177.65-23.62Q177.65-23.25 177.39-22.92 177.12-22.59 176.63-22.59L176.63-22.59 169.51-22.59Q170.74-17.57 172.88-13.27 175.02-8.97 178.4-5.1L178.4-5.1ZM158.69-12.1L154.99-16.17Q154.78-16.42 154.7-16.75L154.7-16.75 154.7 3.13Q154.7 3.62 154.37 3.89 154.04 4.16 153.67 4.16L153.67 4.16Q153.3 4.16 152.97 3.89 152.64 3.62 152.64 3.13L152.64 3.13 152.64-16.66Q150.34-10.45 147.29-5.68L147.29-5.68Q147-5.23 146.43-5.23L146.43-5.23Q146.06-5.23 145.85-5.39L145.85-5.39Q145.4-5.68 145.4-6.25L145.4-6.25Q145.4-6.54 145.56-6.83L145.56-6.83Q149.8-13.25 152.39-22.59L152.39-22.59 147.54-22.59Q147.04-22.59 146.78-22.92 146.51-23.25 146.51-23.62L146.51-23.62Q146.51-23.99 146.78-24.32 147.04-24.64 147.54-24.64L147.54-24.64 152.64-24.64 152.64-31.52Q152.64-32.01 152.97-32.28 153.3-32.54 153.67-32.54L153.67-32.54Q154.04-32.54 154.37-32.28 154.7-32.01 154.7-31.52L154.7-31.52 154.7-24.64 159.31-24.64Q159.8-24.64 160.07-24.32 160.33-23.99 160.33-23.62L160.33-23.62Q160.33-23.25 160.07-22.92 159.8-22.59 159.31-22.59L159.31-22.59 154.7-22.59 154.7-16.99Q154.78-17.4 155.03-17.61L155.03-17.61Q155.27-17.86 155.73-17.86L155.73-17.86Q156.18-17.86 156.51-17.49L156.51-17.49 160.25-13.41Q160.5-13.12 160.5-12.8L160.5-12.8Q160.5-12.34 160.13-11.97L160.13-11.97Q159.88-11.73 159.47-11.73L159.47-11.73Q159.02-11.73 158.69-12.1L158.69-12.1Z" transform="translate(-4.650000095367432, 33.040000915527344)"></path></g> <!----> <!----> <!----> <!----> <!----> <!----> <!----></g></g> <g data-gra="path-slogan" fill-rule="" class="tp-slogan iconsvg-slogansvg" fill="url(#ba9252f3-32eb-46ce-b5ae-3380e3d2d47b)" transform="translate(5,43.2400016784668)"><rect x="0" height="1" y="3.9750003814697266" width="7.2991790771484375"></rect> <rect height="1" y="3.9750003814697266" width="7.2991790771484375" x="156.6508331298828"></rect> <g transform="translate(10.299179077148438,0)"><g transform="scale(1)"><path d="M7.17-6.09L7.17-6.09L6.09-6.09Q6-7.73 3.94-7.83L3.94-7.83Q2.02-7.78 2.02-6.33L2.02-6.33Q2.02-5.39 3.05-5.25L3.05-5.25L5.48-4.69Q7.41-4.22 7.41-2.34L7.41-2.34Q7.36 0.05 4.03 0.14L4.03 0.14Q2.20 0.14 1.45-0.61L1.45-0.61Q0.52-1.31 0.56-2.77L0.56-2.77L1.69-2.77Q1.73-0.80 4.03-0.75L4.03-0.75Q6.28-0.80 6.33-2.20L6.33-2.20Q6.52-3.38 4.45-3.75L4.45-3.75L2.67-4.13Q0.84-4.64 0.84-6.19L0.84-6.19Q0.98-8.72 3.84-8.81L3.84-8.81Q7.08-8.81 7.17-6.09ZM10.03-5.06L14.53-5.06L14.53-8.58L15.70-8.58L15.70 0L14.53 0L14.53-3.98L10.03-3.98L10.03 0L8.86 0L8.86-8.58L10.03-8.58L10.03-5.06ZM23.16 0L22.31-2.48L18.84-2.48L17.95 0L16.78 0L20.02-8.58L21.33-8.58L24.42 0L23.16 0ZM20.58-7.31L19.22-3.52L21.89-3.52L20.63-7.31L20.58-7.31ZM26.86-8.58L31.17-1.64L31.17-8.58L32.30-8.58L32.30 0L30.98 0L26.63-6.94L26.58-6.94L26.58 0L25.45 0L25.45-8.58L26.86-8.58ZM40.83-8.58L37.92-4.41L40.97 0L39.52 0L37.17-3.52L34.83 0L33.42 0L36.52-4.41L33.61-8.58L35.06-8.58L37.22-5.30L39.42-8.58L40.83-8.58ZM42.23-8.58L43.41-8.58L43.41 0L42.23 0L42.23-8.58ZM55.45-8.58L52.55-4.41L55.59 0L54.14 0L51.80-3.52L49.45 0L48.05 0L51.14-4.41L48.23-8.58L49.69-8.58L51.84-5.30L54.05-8.58L55.45-8.58ZM56.86-8.58L58.03-8.58L58.03 0L56.86 0L56.86-8.58ZM61.41-8.58L65.72-1.64L65.72-8.58L66.84-8.58L66.84 0L65.53 0L61.17-6.94L61.13-6.94L61.13 0L60 0L60-8.58L61.41-8.58ZM72.28-7.64L69.94-7.64L69.94-4.64L72.23-4.64Q74.02-4.64 74.02-6.19L74.02-6.19Q74.02-7.59 72.28-7.64L72.28-7.64ZM72.66-3.61L69.94-3.61L69.94 0L68.77 0L68.77-8.58L72.66-8.58Q75.09-8.48 75.19-6.19L75.19-6.19Q75.05-3.70 72.66-3.61L72.66-3.61ZM82.27 0L81.42-2.48L77.95-2.48L77.06 0L75.89 0L79.13-8.58L80.44-8.58L83.53 0L82.27 0ZM79.69-7.31L78.33-3.52L81-3.52L79.73-7.31L79.69-7.31ZM85.97-8.58L90.28-1.64L90.28-8.58L91.41-8.58L91.41 0L90.09 0L85.73-6.94L85.69-6.94L85.69 0L84.56 0L84.56-8.58L85.97-8.58ZM102.05-3.89L97.83-3.89L97.83 0L96.66 0L96.66-8.58L102.61-8.58L102.61-7.59L97.83-7.59L97.83-4.92L102.05-4.92L102.05-3.89ZM110.58-4.27L110.58-4.27Q110.39-7.64 107.58-7.83L107.58-7.83Q104.72-7.69 104.58-4.27L104.58-4.27Q104.72-0.94 107.58-0.80L107.58-0.80Q110.39-0.98 110.58-4.27ZM111.75-4.27L111.75-4.27Q111.47 0 107.58 0.14L107.58 0.14Q103.64 0 103.36-4.27L103.36-4.27Q103.59-8.72 107.58-8.81L107.58-8.81Q111.47-8.67 111.75-4.27ZM117.23-3.70L114.42-3.70L114.42 0L113.25 0L113.25-8.58L117.23-8.58Q120.09-8.58 120.09-6.28L120.09-6.28Q120.09-4.88 118.88-4.22L118.88-4.22Q119.91-3.94 119.91-2.58L119.91-2.58L120-1.03Q119.95-0.38 120.42-0.19L120.42-0.19L120.42 0L118.97 0Q118.83-0.61 118.78-2.16L118.78-2.16Q118.83-3.70 117.23-3.70L117.23-3.70ZM117.33-7.64L114.42-7.64L114.42-4.69L117.14-4.69Q118.88-4.69 118.88-6.19L118.88-6.19Q118.88-7.64 117.33-7.64L117.33-7.64ZM123.05-1.03L128.20-1.03L128.20 0L121.88 0L121.88-8.58L128.11-8.58L128.11-7.59L123.05-7.59L123.05-4.92L127.73-4.92L127.73-3.89L123.05-3.89L123.05-1.03ZM135.98-6.09L135.98-6.09L134.91-6.09Q134.81-7.73 132.75-7.83L132.75-7.83Q130.83-7.78 130.83-6.33L130.83-6.33Q130.83-5.39 131.86-5.25L131.86-5.25L134.30-4.69Q136.22-4.22 136.22-2.34L136.22-2.34Q136.17 0.05 132.84 0.14L132.84 0.14Q131.02 0.14 130.27-0.61L130.27-0.61Q129.33-1.31 129.38-2.77L129.38-2.77L130.50-2.77Q130.55-0.80 132.84-0.75L132.84-0.75Q135.09-0.80 135.14-2.20L135.14-2.20Q135.33-3.38 133.27-3.75L133.27-3.75L131.48-4.13Q129.66-4.64 129.66-6.19L129.66-6.19Q129.80-8.72 132.66-8.81L132.66-8.81Q135.89-8.81 135.98-6.09ZM139.88-7.59L136.97-7.59L136.97-8.58L143.91-8.58L143.91-7.59L141-7.59L141 0L139.88 0L139.88-7.59Z" transform="translate(-0.5602678571428572, 8.8125)"></path></g></g></g></g></g><defs v-gra="od"><linearGradient x1="0" y1="1" x2="0" y2="0" id="ba9252f3-32eb-46ce-b5ae-3380e3d2d47b"><stop offset="0%" stop-color="#03001e"></stop><stop offset="33.33%" stop-color="#7303c0"></stop><stop offset="66.67%" stop-color="#ec38bc"></stop><stop offset="100%" stop-color="#fdeff9"></stop></linearGradient><filter id="42443b3f1de60f6b6fd3b6a9844b4764" filterUnits="objectBoundingBox"><feColorMatrix type="matrix" values="0 0 0 0 0.99609375  0 0 0 0 0.99609375  0 0 0 0 0.99609375  0 0 0 1 0"></feColorMatrix></filter><linearGradient x1="0" y1="1" x2="0" y2="0" id="ba6d2163-00d6-4129-b181-92235aefd063"><stop offset="0%" stop-color="#03001e"></stop><stop offset="33.33%" stop-color="#7303c0"></stop><stop offset="66.67%" stop-color="#ec38bc"></stop><stop offset="100%" stop-color="#fdeff9"></stop></linearGradient><filter id="42443b3f1de60f6b6fd3b6a9844b4764" filterUnits="objectBoundingBox"><feColorMatrix type="matrix" values="0 0 0 0 0.99609375  0 0 0 0 0.99609375  0 0 0 0 0.99609375  0 0 0 1 0"></feColorMatrix></filter></defs><defs v-gra="id"><filter id="646850cf-87a6-4925-9cdb-b7a7802bebbc" filterUnits="userSpaceOnUse"><feColorMatrix type="matrix" values="0 0 0 0 0.99609375  0 0 0 0 0.99609375  0 0 0 0 0.99609375  0 0 0 1 0"></feColorMatrix></filter><linearGradient x1="0" y1="1" x2="0" y2="0" id="BAsRRBKsrBwnhhd9BIjHN"><stop offset="0%" stop-color="#03001e"></stop><stop offset="33.33%" stop-color="#7303c0"></stop><stop offset="66.67%" stop-color="#ec38bc"></stop><stop offset="100%" stop-color="#fdeff9"></stop></linearGradient><filter id="42443b3f1de60f6b6fd3b6a9844b4764" filterUnits="objectBoundingBox"><feColorMatrix type="matrix" values="0 0 0 0 0.99609375  0 0 0 0 0.99609375  0 0 0 0 0.99609375  0 0 0 1 0"></feColorMatrix></filter></defs><mask v-gra="im" id="163722b7-d63f-491e-a79f-56fd4b297a8d"><g class="iconsvg-imagesvg" filter="url(#646850cf-87a6-4925-9cdb-b7a7802bebbc)"><g><rect fill="#03001e" fill-opacity="0" stroke-width="2" x="0" y="0" width="60" height="53.96945328943818" class="image-rect"></rect> <svg x="0" y="0" width="60" height="53.96945328943818" filtersec="colorsf7120703810" class="image-svg-svg primary" style="overflow: visible;"><svg xmlns="http://www.w3.org/2000/svg" viewBox="-0.0250411294400692 -0.00058746337890625 142.3494110107422 128.04251098632812"><title>4DeOgf.tif</title><path d="M70.56 0C94.87.12 117 7.32 137.5 20.15c3.77 2.36 5.7 4.92 4.44 9.45-.62 2.23.3 5.49-1.75 6.56-2.23 1.16-3.65-2-5.37-3.22a65.9 65.9 0 0 0-36.71-12.52c-21.76-.9-42.56 2.93-62 13.09A122.93 122.93 0 0 0 8.88 53.24C6 56 5.54 55.91 4.45 52 2.12 43.54.2 35 0 26.2a5.72 5.72 0 0 1 3-5.58C23.75 8.05 45.89-.08 70.56 0z" fill="#000000"></path><path d="M87.47 36.81c12.17.44 25.51 2.48 37.27 10.46 11.16 7.56 11.89 10.17 6 22.16-1.21 2.46-2.6 4.84-3.94 7.24-.42.74-.74 1.76-1.78 1.73-1.35 0-1.29-1.34-1.56-2.23-2.13-7-5.81-12.69-12.41-16.22-8.31-4.44-17.23-4.78-26.3-3.85-23.6 2.39-43.11 12.74-58.9 30.32-3 3.34-3.17 3.25-5.67-.44-.71-1-1.44-2-2.07-3.12-6.29-10.69-6.12-8.15 1.65-15.6 11-10.51 23.23-19.37 37.56-25a79.92 79.92 0 0 1 30.15-5.45z" fill="#000000"></path><path d="M87.1 72.69c11.77 1 22.13 4.69 29.55 14.54 1.65 2.18 1.74 3.85-.43 5.76-2.34 2.05-4.43 4.39-6.61 6.63-1.44 1.48-2.53 1.88-3.5-.54-2.18-5.42-6.56-8-12.14-8.68-13.31-1.49-24.97 2.39-34.75 11.46a75.18 75.18 0 0 0-9.8 10.3c-1.39 1.88-2.71 1.94-4.31.42-.09-.09-.2-.15-.29-.23-11.72-9.86-11.75-7-1.88-18.73C54.3 80.13 69.64 74 87.1 72.69zM92.51 106.64h6c.74 0 1.59.09 1.89.92s-.38 1.35-.95 1.83a155.35 155.35 0 0 1-26.14 18c-2.39 1.29-4.32.48-6.25-.82-2.12-1.43-1.1-3.37-.6-5.09 2.54-8.6 10.54-14.19 21.18-14.83 1.62-.09 3.24-.01 4.87-.01z" fill="#000000"></path></svg></svg> <defs><filter id="colors4021528489"><feColorMatrix type="matrix" values="0 0 0 0 0.01171875  0 0 0 0 0  0 0 0 0 0.1171875  0 0 0 1 0" class="icon-fecolormatrix"></feColorMatrix></filter> <filter id="colorsf7120703810"><feColorMatrix type="matrix" values="0 0 0 0 0.99609375  0 0 0 0 0.99609375  0 0 0 0 0.99609375  0 0 0 1 0" class="icon-fecolormatrix"></feColorMatrix></filter> <filter id="colorsb7550100171"><feColorMatrix type="matrix" values="0 0 0 0 0  0 0 0 0 0  0 0 0 0 0  0 0 0 1 0" class="icon-fecolormatrix"></feColorMatrix></filter></defs></g></g></mask></svg>